<?xml version="1.0" encoding="utf-8"?>
<!-- Generator: Adobe Illustrator 15.0.2, SVG Export Plug-In . SVG Version: 6.00 Build 0)  -->
<!DOCTYPE svg PUBLIC "-//W3C//DTD SVG 1.0//EN" "http://www.w3.org/TR/2001/REC-SVG-20010904/DTD/svg10.dtd">
<svg version="1.0" id="Layer_1" xmlns="http://www.w3.org/2000/svg" xmlns:xlink="http://www.w3.org/1999/xlink" x="0px" y="0px"
	 width="260px" height="120px" viewBox="0 0 260 120" enable-background="new 0 0 260 120" xml:space="preserve">
<g>
	<path fill="#EB272A" d="M32.605,44.535c-2.829,0.419-3.457,0.838-5.081,4.138c-1.572,3.195-5.029,11.524-8.12,19.329h-1.729
		c-2.776-6.81-6.233-15.138-8.33-20.114C8.195,45.11,7.357,44.849,5,44.535v-1.468h11.576v1.468l-1.414,0.261
		c-1.414,0.314-1.625,0.682-0.943,2.357c0.995,2.672,3.614,8.958,5.867,14.51c1.833-4.295,4.662-11.629,5.5-14.249
		c0.628-1.938,0.418-2.357-1.466-2.671l-1.101-0.209v-1.468h9.586V44.535z"/>
	<path fill="#EB272A" d="M45.489,67.478v-1.466l0.943-0.104c1.519-0.21,1.886-0.629,1.153-2.515l-1.415-3.719h-8.539
		c-0.419,0.995-0.838,2.2-1.257,3.562c-0.576,1.991-0.052,2.357,1.467,2.62l1.257,0.157v1.466h-9.586v-1.466
		c2.41-0.315,3.405-0.629,4.924-4.348l7.858-18.911l1.884-0.418l8.173,20.167c1.205,2.934,2.147,3.301,4.557,3.51v1.466H45.489z
		 M41.927,48.463h-0.105l-3.457,9.062h6.966L41.927,48.463z"/>
	<path fill="#EB272A" d="M81.578,60.562c-0.315,1.625-1.1,5.71-1.414,6.916h-20.01v-1.466c3.667-0.263,3.929-0.525,3.929-4.244
		V48.672c0-3.719-0.314-3.876-3.667-4.138v-1.468h12.257v1.468c-3.561,0.261-3.876,0.419-3.876,4.19v13.462
		c0,1.833,0.262,2.776,0.943,3.143c0.733,0.367,2.043,0.473,3.772,0.473c2.305-0.053,3.667-0.367,4.557-1.415
		c0.733-0.838,1.257-1.99,1.991-4.034L81.578,60.562z"/>
	<path fill="#EB272A" d="M100.799,67.478v-1.466l0.944-0.104c1.518-0.21,1.885-0.629,1.152-2.515l-1.414-3.719h-8.539
		c-0.419,0.995-0.838,2.2-1.257,3.562c-0.576,1.991-0.052,2.357,1.467,2.62l1.257,0.157v1.466h-9.586v-1.466
		c2.41-0.315,3.405-0.629,4.924-4.348l7.857-18.911l1.885-0.418l8.173,20.167c1.205,2.934,2.147,3.301,4.557,3.51v1.466H100.799z
		 M97.237,48.463h-0.105l-3.457,9.062h6.967L97.237,48.463z"/>
	<path fill="#EB272A" d="M143.12,44.535c-2.461,0.157-3.456,0.628-3.613,2.252c-0.158,1.413-0.315,3.091-0.315,6.705v14.247h-1.938
		l-15.819-18.962l-0.053,0.052v8.119c0,3.667,0.158,5.501,0.314,6.758c0.21,1.623,1.205,2.096,4.086,2.305v1.466h-10.267v-1.466
		c2.356-0.209,3.352-0.682,3.562-2.305c0.157-1.257,0.314-3.091,0.314-6.758V49.93c0-4.348-0.891-5.134-4.452-5.396v-1.468h7.49
		l14.666,16.817h0.105v-6.391c0-3.562-0.105-5.292-0.263-6.601c-0.209-1.729-1.098-2.148-4.084-2.357v-1.468h10.266V44.535z"/>
	<path fill="#EB272A" d="M169.048,60.302c-0.315,1.99-1.1,5.919-1.519,7.176h-21.11l-0.368-0.681l15.558-21.948h-5.395
		c-3.929,0-4.872,0.472-5.447,1.414c-0.577,0.838-1.048,1.99-1.52,3.876h-1.519c0.209-3.195,0.472-5.972,0.524-7.962h1.205
		c0.471,0.838,0.943,0.944,2.147,0.89h15.976l0.315,0.734L152.652,65.54c1.047,0.104,2.671,0.209,5.292,0.209
		c3.876,0,6.128-0.262,7.229-1.309c0.89-0.944,1.571-2.201,2.409-4.453L169.048,60.302z"/>
	<path fill="#EB272A" d="M199.008,54.958c0,8.748-6.651,13.2-13.147,13.2c-8.539,0-13.305-6.233-13.305-12.414
		c0-9.271,7.333-13.357,13.357-13.357C193.719,42.387,199.008,47.887,199.008,54.958z M177.951,54.591
		c0,6.967,3.51,11.839,8.383,11.839c3.875,0,7.279-2.829,7.279-10.424c0-5.972-2.985-11.891-8.275-11.891
		C181.513,44.115,177.951,47.677,177.951,54.591z"/>
	<path fill="#EB272A" d="M224.358,60.562c-0.313,1.625-1.1,5.71-1.415,6.916h-20.01v-1.466c3.666-0.263,3.929-0.525,3.929-4.244
		V48.672c0-3.719-0.315-3.876-3.668-4.138v-1.468h12.259v1.468c-3.563,0.261-3.877,0.419-3.877,4.19v13.462
		c0,1.833,0.263,2.776,0.943,3.143c0.733,0.367,2.044,0.473,3.772,0.473c2.304-0.053,3.666-0.367,4.557-1.415
		c0.733-0.838,1.257-1.99,1.99-4.034L224.358,60.562z"/>
	<path fill="#EB272A" d="M243.581,67.478v-1.466l0.941-0.104c1.52-0.21,1.887-0.629,1.153-2.515l-1.416-3.719h-8.537
		c-0.42,0.995-0.837,2.2-1.258,3.562c-0.576,1.991-0.054,2.357,1.466,2.62l1.258,0.157v1.466h-9.587v-1.466
		c2.412-0.315,3.405-0.629,4.927-4.348l7.855-18.911l1.886-0.418l8.172,20.167c1.205,2.934,2.148,3.301,4.559,3.51v1.466H243.581z
		 M240.018,48.463h-0.105l-3.456,9.062h6.966L240.018,48.463z"/>
</g>
<g>
	<path fill="#4654A4" d="M132.564,13.522c-0.308-0.692-0.999-1.691-1.076,0.075c-0.014,0.305-0.051,0.547-0.104,0.624h1.896
		C132.941,14.015,132.663,13.737,132.564,13.522"/>
	<g>
		<path fill="#4654A4" d="M75.37,5.67c-3.824,0.262-4.085,0.524-4.034,4.139l0.315,13.2c0.052,3.562,0.261,3.825,3.876,4.086v1.467
			H63.374v-1.467c3.406-0.261,3.667-0.524,3.667-4.137l0.105-15.086h-0.157l-9.115,20.271h-1.256l-7.91-19.905H48.55l-0.524,9.638
			c-0.208,3.772-0.208,5.501-0.157,6.81c0.104,1.677,0.89,2.2,3.615,2.409v1.467h-9.796v-1.467c2.357-0.209,3.248-0.732,3.51-2.356
			c0.262-1.519,0.524-3.509,0.786-6.916l0.629-7.438c0.366-4.19,0-4.452-3.615-4.714V4.151h8.434l7.386,16.605l8.014-16.605h8.539
			V5.67z"/>
		<path fill="#4654A4" d="M79.558,28.562v-1.467c3.352-0.261,3.666-0.524,3.666-4.243V9.861c0-3.771-0.314-3.98-3.666-4.243V4.151
			h12.048v1.466c-3.353,0.315-3.667,0.472-3.667,4.243v12.991c0,3.719,0.315,3.981,3.667,4.243v1.467H79.558z"/>
		<path fill="#4654A4" d="M114.757,28.562c-1.467-1.571-6.182-7.7-8.328-10.582c-0.891-1.204-1.467-1.152-2.253-0.891v5.868
			c0,3.613,0.314,3.876,3.719,4.137v1.467H96.108v-1.467c3.143-0.209,3.458-0.524,3.458-4.137V9.809c0-3.72-0.314-3.929-3.615-4.191
			V4.151h11.733v1.466c-3.143,0.263-3.509,0.472-3.509,4.191v5.761c0.786-0.157,1.676-0.575,2.567-1.309
			c2.357-2.096,5.081-5.134,6.181-6.496c0.891-1.152,0.943-1.729-0.471-1.938l-1.309-0.21V4.151h10.528v1.466
			c-2.62,0.263-3.928,0.682-6.128,2.515c-1.414,1.205-3.981,3.771-6.287,6.076c2.985,4.139,6.287,8.12,8.277,10.215
			c1.833,1.939,2.934,2.462,4.819,2.671v1.467H114.757z"/>
		<path fill="#4654A4" d="M147.232,22.014c-0.263,1.676-1.048,5.5-1.363,6.548h-20.586v-1.467c3.667-0.314,3.928-0.576,3.928-4.348
			V9.915c0-3.825-0.261-4.087-3.562-4.297V4.151h19.224c0.052,0.995,0.21,3.562,0.418,6.024l-1.518,0.105
			c-0.473-1.624-0.839-2.462-1.415-3.143c-0.681-0.891-1.519-1.257-4.295-1.257h-2.62c-1.414,0-1.519,0.104-1.519,1.519v7.491h3.667
			c3.145,0,3.405-0.314,3.877-2.881h1.519v7.962h-1.519c-0.472-2.619-0.732-3.038-3.877-3.038h-3.667v5.919
			c0,2.043,0.262,3.038,0.891,3.405c0.681,0.471,1.886,0.577,4.034,0.577c2.567,0,3.876-0.315,4.818-1.311
			c0.681-0.733,1.363-1.885,2.044-3.718L147.232,22.014z"/>
	</g>
	<g>
		<path fill="#EB272A" d="M217.728,22.876c0.075-2.382-1.457-2.921-1.768-3.536c-0.305-0.613-1.763-1.306-2.301-1.306
			c-0.543,0-1.076,0.538-1.001,1.384c0.076,0.845,0.307-0.538,1.539-0.538c1.227,0,1.306,0.998,1.306,1.536s0.382,1.152,0.691,1.384
			c0.305,0.229,0.61,1.075,0.767,1.69c0.157,0.615-0.307,1.229-0.921,1.535c-0.616,0.308-1.613,0.616-2.536,1.078
			c-0.921,0.46-1,0.998-1,0.383c0-0.613-2.612-0.46-3.534-1.076c-0.922-0.615-1.227-0.691-0.768-1.458
			c0.461-0.77,0.152-0.462,0.152-0.462l-0.692-1.844c0,0-0.688-0.23-1.534-0.078c-0.844,0.152-1.15-1.076-1.15-1.076l0.689-0.382
			c0,0-0.457-0.848,0.461-0.848c0.331,0,0.312-0.212,0.161-0.834l-49.149-0.005v9.817h38.242l0.428,0.185
			c0,0,0.481-0.172,1.405-0.634c0.92-0.461,1.306-0.23,1.152,0.155c-0.153,0.384-0.463,3.38,0.461,3.302
			c0.923-0.077,1.614-0.537,2.459-0.614c0.849-0.077,0.152-0.769,0.54-1.46c0.381-0.691,1.076,0.154,1.997-0.537
			c0.921-0.691,0.461-0.385,1.073-1.613c0.612-1.229,0.23-0.617,1.154-0.617c0.922,0,0.385,0.309,0.385,0.692s-0.231,0.691,0,1.23
			c0.23,0.537-0.309,1.304-0.157,1.766c0.155,0.461-1.534,0.999-1.844,1.613c-0.306,0.615-2.844,0.771-2.608,1.23
			c0.228,0.462,2.38-0.615,3.07-1.075c0.693-0.462,1.692-1.538,2.534-1.538c0.884,0,1.919-1.074,2.309-1.152
			c0.381-0.077,1.689-0.383,1.994-0.769c0.308-0.384,1.616,0.769,1.616,0c0-0.767,3.074-0.307,3.688-0.845
			c0.618-0.536-0.233,1.306,0.846,0.461C218.962,27.18,217.656,25.257,217.728,22.876"/>
		<path fill="#4654A4" d="M206.551,5.608c-0.383-0.307,0.229-0.461-0.309-0.768c-0.534-0.308-0.614,0.768-0.921,0.922
			c-0.308,0.155-0.691-0.615-1.23-0.845c-0.537-0.232-0.459-1.459-0.845-2.919c-0.383-1.458,0.076-1.076-0.613-1.076
			c-0.691,0-0.538-0.154-1.153-0.308c-0.614-0.152-0.767,0.463-1.921,0.845c0,0-0.463,1.153-0.847,0.769
			c-0.385-0.384-0.922,0.23-1.457,0.307c-0.536,0.077,0.384,1.306,0.075,1.306c-0.308,0-0.614-0.155-0.614-0.155l-1.152,0.615
			l-2.249,0.005H157.14v9.915h44.421c-0.338,0.348-0.922-0.877-1.542-0.929c-0.924-0.076,1.228-0.847,0.536-1
			c-0.689-0.152,0.691-1.458,1.001-1.919c0.306-0.461,1.307-0.692,1.382-1.384c0.075-0.691-0.997-0.307-0.611-0.846
			c0.382-0.538,2.918-0.307,3.454-0.768C206.321,6.913,206.936,5.917,206.551,5.608"/>
		<path fill="#EB272A" d="M204.281,34.699c0,0,1.094-1.325,1.528-1.902c0.431-0.575,1.469-1.151,1.497-1.007
			c0.029,0.145,0.318,0.145,0.545,0.145c0.232,0,0.03,0.689,0.205,1.007c0.173,0.317,0.43,0.462,0.605,0.52
			c0.173,0.057,0.315,0.258,0.286,0.345c-0.028,0.086,0.26,0.288,0.347-0.087c0.085-0.375,0.057-0.575,0.317-0.606
			c0.258-0.028,0.258,1.039,0.258,1.039l-0.114,0.518c0,0-3.804-0.029-4.352,0.259s-0.808,0.604-0.808,0.604
			s-0.142,0.375-0.748-0.114c-0.604-0.491-0.922-0.924-0.487-0.924C203.792,34.497,204.281,34.699,204.281,34.699"/>
		<path fill="#EB272A" d="M212.752,35.421c0.347-0.03,0.577,0.114,0.606,0.316c0.028,0.201,0.518,0.057,1.151,0.028
			c0.635-0.028,1.414,0.172,1.586-0.143c0.172-0.318,0.922-0.779,0.809-1.154c-0.118-0.374-0.608-0.95-0.262-0.921
			c0.343,0.029,1.438,2.391,1.47,2.796c0.027,0.402-1.208,0.777-1.845,0.576c-0.632-0.203-0.201,0.202-0.749,0.029
			c-0.548-0.173-2.42-1.009-2.65-1.153C212.639,35.649,212.752,35.421,212.752,35.421"/>
		<g>
			<polygon fill="#FFFFFF" points="163.249,6.695 164.052,8.319 165.847,8.585 164.546,9.848 164.857,11.636 163.249,10.792 
				161.644,11.636 161.953,9.848 160.653,8.585 162.445,8.319 			"/>
			<polygon fill="#FFFFFF" points="177.607,6.695 178.409,8.319 180.202,8.585 178.899,9.848 179.212,11.636 177.607,10.792 
				175.997,11.636 176.305,9.848 175.007,8.585 176.802,8.319 			"/>
			<polygon fill="#FFFFFF" points="191.961,6.695 192.763,8.319 194.557,8.585 193.26,9.848 193.563,11.636 191.961,10.792 
				190.355,11.636 190.663,9.848 189.363,8.585 191.155,8.319 			"/>
		</g>
	</g>
</g>
<g>
	<path fill="#4654A4" d="M29.933,103.043c-0.768-2.464-2.019-4.401-4.401-4.401c-1.898,0-2.988,1.372-2.988,2.907
		c0,2.06,1.575,2.826,3.392,3.593l0.808,0.324c2.826,1.17,5.329,2.584,5.329,5.814c0,3.473-3.068,5.895-7.187,5.895
		c-2.666,0-4.644-0.969-5.331-1.413c-0.242-0.727-0.686-3.069-0.968-5.127l1.17-0.284c0.727,2.342,2.585,5.491,5.653,5.491
		c1.938,0,3.231-1.331,3.231-3.149c0-2.058-1.494-2.948-3.231-3.714l-0.969-0.404c-2.261-0.969-5.087-2.463-5.087-5.531
		c0-3.392,2.544-5.734,6.864-5.734c1.898,0,3.473,0.565,4.2,0.808c0.242,1.211,0.444,2.666,0.727,4.764L29.933,103.043z"/>
	<path fill="#4654A4" d="M51.695,103.043c-0.364-1.616-0.687-2.504-1.091-2.988c-0.525-0.647-1.413-0.889-3.109-0.889h-1.736v13.002
		c0,2.908,0.242,3.109,3.149,3.312v1.171h-9.811v-1.171c2.785-0.203,3.028-0.404,3.028-3.312V99.166h-1.212
		c-2.422,0-3.029,0.283-3.553,1.009c-0.403,0.566-0.727,1.374-1.051,2.868H35.1c0.121-2.383,0.323-4.442,0.364-5.896h0.887
		c0.445,0.605,0.809,0.688,1.616,0.727h12.194c0.848,0,1.049-0.161,1.494-0.727h0.887c0,1.252,0.203,4.079,0.365,5.855
		L51.695,103.043z"/>
	<path fill="#4654A4" d="M65.341,116.65v-1.131l0.727-0.08c1.171-0.162,1.454-0.485,0.888-1.939l-1.091-2.865h-6.581
		c-0.323,0.766-0.646,1.694-0.969,2.744c-0.444,1.535-0.041,1.818,1.131,2.02l0.968,0.121v1.131h-7.39v-1.131
		c1.858-0.242,2.625-0.484,3.797-3.351l6.057-14.576l1.454-0.322l6.299,15.544c0.928,2.262,1.655,2.544,3.512,2.705v1.131H65.341z
		 M62.594,101.993h-0.08l-2.665,6.985h5.369L62.594,101.993z"/>
	<path fill="#4654A4" d="M90.858,103.043c-0.364-1.616-0.686-2.504-1.09-2.988c-0.526-0.647-1.413-0.889-3.11-0.889h-1.736v13.002
		c0,2.908,0.242,3.109,3.149,3.312v1.171H78.26v-1.171c2.786-0.203,3.029-0.404,3.029-3.312V99.166h-1.212
		c-2.422,0-3.028,0.283-3.553,1.009c-0.404,0.566-0.727,1.374-1.051,2.868h-1.21c0.121-2.383,0.322-4.442,0.362-5.896h0.889
		c0.444,0.605,0.808,0.688,1.615,0.727h12.194c0.848,0,1.049-0.161,1.494-0.727h0.888c0,1.252,0.202,4.079,0.363,5.855
		L90.858,103.043z"/>
	<path fill="#4654A4" d="M111.894,111.603c-0.203,1.292-0.808,4.239-1.05,5.047H94.975v-1.131c2.827-0.242,3.028-0.443,3.028-3.351
		v-9.892c0-2.948-0.202-3.15-2.746-3.311v-1.13h14.818c0.04,0.767,0.162,2.745,0.323,4.643l-1.171,0.08
		c-0.364-1.251-0.646-1.897-1.091-2.423c-0.524-0.686-1.17-0.969-3.311-0.969h-2.018c-1.09,0-1.171,0.082-1.171,1.171v5.774h2.825
		c2.423,0,2.625-0.243,2.988-2.221h1.171v6.138h-1.171c-0.363-2.019-0.565-2.342-2.988-2.342h-2.825v4.562
		c0,1.575,0.201,2.342,0.686,2.625c0.525,0.363,1.453,0.444,3.109,0.444c1.978,0,2.988-0.242,3.715-1.01
		c0.525-0.565,1.05-1.453,1.574-2.867L111.894,111.603z"/>
	<path fill="#4654A4" d="M135.391,103.043c-0.767-2.464-2.02-4.401-4.401-4.401c-1.898,0-2.988,1.372-2.988,2.907
		c0,2.06,1.574,2.826,3.392,3.593l0.807,0.324c2.827,1.17,5.331,2.584,5.331,5.814c0,3.473-3.069,5.895-7.188,5.895
		c-2.664,0-4.643-0.969-5.33-1.413c-0.242-0.727-0.685-3.069-0.968-5.127l1.17-0.284c0.726,2.342,2.583,5.491,5.652,5.491
		c1.94,0,3.231-1.331,3.231-3.149c0-2.058-1.495-2.948-3.231-3.714l-0.968-0.404c-2.261-0.969-5.088-2.463-5.088-5.531
		c0-3.392,2.544-5.734,6.866-5.734c1.898,0,3.471,0.565,4.199,0.808c0.242,1.211,0.444,2.666,0.727,4.764L135.391,103.043z"/>
	<path fill="#4654A4" d="M157.273,111.603c-0.201,1.292-0.808,4.239-1.049,5.047h-15.869v-1.131
		c2.827-0.242,3.029-0.443,3.029-3.351v-9.892c0-2.948-0.202-3.15-2.746-3.311v-1.13h14.818c0.042,0.767,0.162,2.745,0.324,4.643
		l-1.172,0.08c-0.363-1.251-0.646-1.897-1.09-2.423c-0.524-0.686-1.17-0.969-3.31-0.969h-2.019c-1.09,0-1.17,0.082-1.17,1.171v5.774
		h2.826c2.423,0,2.625-0.243,2.988-2.221h1.17v6.138h-1.17c-0.364-2.019-0.565-2.342-2.988-2.342h-2.826v4.562
		c0,1.575,0.201,2.342,0.685,2.625c0.526,0.363,1.454,0.444,3.11,0.444c1.978,0,2.988-0.242,3.715-1.01
		c0.524-0.565,1.05-1.453,1.574-2.867L157.273,111.603z"/>
	<path fill="#4654A4" d="M181.417,98.965c-1.897,0.121-2.664,0.484-2.785,1.736c-0.121,1.09-0.242,2.422-0.242,5.168v10.983h-1.494
		l-12.193-14.617l-0.041,0.041v6.258c0,2.787,0.121,4.241,0.242,5.209c0.162,1.251,0.93,1.615,3.15,1.776v1.131h-7.914v-1.131
		c1.816-0.161,2.583-0.524,2.745-1.776c0.121-0.969,0.243-2.423,0.243-5.209v-5.411c0-3.391-0.687-3.957-3.432-4.158v-1.13h5.774
		l11.305,12.961h0.081v-4.927c0-2.786-0.081-4.078-0.202-5.087c-0.161-1.333-0.847-1.656-3.149-1.817v-1.13h7.913V98.965z"/>
	<path fill="#4654A4" d="M194.862,116.65v-1.131l0.728-0.08c1.171-0.162,1.452-0.485,0.887-1.939l-1.09-2.865h-6.581
		c-0.322,0.766-0.647,1.694-0.969,2.744c-0.445,1.535-0.04,1.818,1.13,2.02l0.97,0.121v1.131h-7.39v-1.131
		c1.857-0.242,2.625-0.484,3.795-3.351l6.058-14.576l1.454-0.322l6.298,15.544c0.929,2.262,1.655,2.544,3.513,2.705v1.131H194.862z
		 M192.116,101.993h-0.08l-2.665,6.985h5.368L192.116,101.993z"/>
	<path fill="#4654A4" d="M220.38,103.043c-0.364-1.616-0.686-2.504-1.092-2.988c-0.524-0.647-1.412-0.889-3.108-0.889h-1.735v13.002
		c0,2.908,0.241,3.109,3.148,3.312v1.171h-9.81v-1.171c2.785-0.203,3.027-0.404,3.027-3.312V99.166h-1.212
		c-2.421,0-3.029,0.283-3.552,1.009c-0.403,0.566-0.728,1.374-1.051,2.868h-1.21c0.121-2.383,0.323-4.442,0.362-5.896h0.888
		c0.446,0.605,0.808,0.688,1.615,0.727h12.196c0.848,0,1.047-0.161,1.494-0.727h0.887c0,1.252,0.202,4.079,0.363,5.855
		L220.38,103.043z"/>
	<path fill="#4654A4" d="M241.413,111.603c-0.2,1.292-0.807,4.239-1.048,5.047h-15.87v-1.131c2.825-0.242,3.028-0.443,3.028-3.351
		v-9.892c0-2.948-0.203-3.15-2.745-3.311v-1.13h14.819c0.04,0.767,0.161,2.745,0.322,4.643l-1.171,0.08
		c-0.364-1.251-0.646-1.897-1.091-2.423c-0.525-0.686-1.171-0.969-3.311-0.969h-2.018c-1.092,0-1.172,0.082-1.172,1.171v5.774h2.826
		c2.423,0,2.624-0.243,2.987-2.221h1.174v6.138h-1.174c-0.363-2.019-0.564-2.342-2.987-2.342h-2.826v4.562
		c0,1.575,0.202,2.342,0.687,2.625c0.525,0.363,1.452,0.444,3.109,0.444c1.977,0,2.987-0.242,3.714-1.01
		c0.524-0.565,1.051-1.453,1.575-2.867L241.413,111.603z"/>
</g>
<g>
	<g>
		<polygon fill="none" stroke="#4654A4" stroke-miterlimit="10" points="113.307,78.405 114.623,81.068 117.567,81.502 
			115.434,83.575 115.944,86.508 113.307,85.121 110.673,86.508 111.18,83.575 109.047,81.502 111.988,81.068 		"/>
		<polygon fill="none" stroke="#4654A4" stroke-miterlimit="10" points="129.896,78.405 131.213,81.068 134.154,81.502 
			132.02,83.575 132.528,86.508 129.896,85.121 127.26,86.508 127.762,83.575 125.633,81.502 128.575,81.068 		"/>
		<polygon fill="none" stroke="#4654A4" stroke-miterlimit="10" points="146.479,78.405 147.795,81.068 150.739,81.502 
			148.608,83.575 149.11,86.508 146.479,85.121 143.845,86.508 144.353,83.575 142.223,81.502 145.16,81.068 		"/>
	</g>
	<g>
		<line fill="none" stroke="#4654A4" stroke-miterlimit="10" x1="15.283" y1="80.758" x2="103.589" y2="80.758"/>
		<line fill="none" stroke="#4654A4" stroke-miterlimit="10" x1="42.034" y1="84.85" x2="103.589" y2="84.85"/>
	</g>
	<g>
		<line fill="none" stroke="#4654A4" stroke-miterlimit="10" x1="244.717" y1="80.758" x2="156.411" y2="80.758"/>
		<line fill="none" stroke="#4654A4" stroke-miterlimit="10" x1="217.967" y1="84.85" x2="156.411" y2="84.85"/>
	</g>
</g>
</svg>
